<?xml version="1.0" encoding="UTF-8"?>
<svg width="216px" height="282px" viewBox="0 0 216 282" version="1.1" xmlns="http://www.w3.org/2000/svg" xmlns:xlink="http://www.w3.org/1999/xlink">
  <title>Stable Starter</title>
  <g stroke="none" stroke-width="1" fill="none" fill-rule="evenodd">
    <g fill="#000000" fill-rule="nonzero">
      <path d="M152.29662,60.055 C132.45668,40.2244 113.52748,21.32031 107.89389,0 C102.26,21.32031 83.32779,40.2244 63.49117,60.055 C33.73608,89.79125 0,123.49285 0,174.03945 C0,233.629351 48.3071592,281.93651 107.89706,281.93651 C167.486961,281.93651 215.79412,233.629351 215.79412,174.03945 C215.79412,123.49616 182.0608,89.79125 152.29662,60.05495 M45.85962,199.18124 C39.24383,198.95659 14.82762,156.87182 60.12362,112.06203 L90.09783,144.80376 C90.6182191,145.317857 90.8940541,146.02987 90.8558268,146.760376 C90.8175994,147.490882 90.4689553,148.170216 89.89775,148.62719 C82.74517,155.96301 52.25902,186.53445 48.46981,197.10532 C47.68769,199.28722 46.54541,199.2047 45.85959,199.18124 M107.89717,254.64773 C98.0553451,254.64773 88.6165961,250.738179 81.6573759,243.778957 C74.6981557,236.819735 70.78861,227.380985 70.78861,217.53916 C70.78861,208.14369 74.52372,199.77101 80.03781,193.02798 C86.72894,184.84598 107.89221,161.8334 107.89221,161.8334 C107.89221,161.8334 128.73147,185.1838 135.69665,192.94988 C141.764157,199.694571 145.085355,208.467272 145.00574,217.53916 C145.00569,238.033637 128.391647,254.64773 107.89717,254.64773 M178.92288,194.47081 C178.12309,196.21997 176.30878,199.14012 173.86001,199.22926 C169.49512,199.38826 169.02871,197.15168 165.8025,192.37695 C158.7195,181.89522 96.90626,117.29324 85.34463,104.79933 C75.17504,93.81033 83.91256,86.06304 87.96563,82.0031 C93.05057,76.9091 107.89333,62.07539 107.89333,62.07539 C107.89333,62.07539 152.15089,104.06688 170.58691,132.75861 C189.02293,161.45034 182.66932,186.27779 178.92291,194.47081"></path>
    </g>
  </g>
</svg>
